HIERARCHY
ROOT hip
{
  OFFSET 0.0 0.0 0.0
  CHANNELS 6 Xposition Yposition Zposition Zrotation Yrotation Xrotation
  JOINT torso
  {
    OFFSET 0.0 0.0 0.0
    CHANNELS 3 Zrotation Xrotation Yrotation
    JOINT neck
    {
      OFFSET -8.059630999999968 325.56260699999996 64.6221310000002
      CHANNELS 3 Zrotation Xrotation Yrotation
      JOINT head
      {
        OFFSET 34.685424000000125 375.1179809999999 232.79357900000002
        CHANNELS 3 Zrotation Xrotation Yrotation
        End Site
        {
          OFFSET 0.0 0.0 0.0
        }
      }
    }
    JOINT left_collar
    {
      OFFSET -8.059630999999968 325.56260699999996 64.6221310000002
      CHANNELS 3 Zrotation Xrotation Yrotation
      JOINT left_upper_arm
      {
        OFFSET -124.124665 -15.370300999999927 25.582641999999964
        CHANNELS 3 Zrotation Xrotation Yrotation
        JOINT left_forearm
        {
          OFFSET -268.19913399999996 105.06054699999993 114.74548300000004
          CHANNELS 3 Zrotation Xrotation Yrotation
          JOINT left_hand
          {
            OFFSET -235.82003099999991 -10.198180999999977 -38.67455999999993
            CHANNELS 3 Zrotation Xrotation Yrotation
            End Site
            {
              OFFSET 0.0 0.0 0.0
            }
          }
        }
      }
    }
    JOINT right_collar
    {
      OFFSET -8.059630999999968 325.56260699999996 64.6221310000002
      CHANNELS 3 Zrotation Xrotation Yrotation
      JOINT right_upper_arm
      {
        OFFSET 162.73931899999997 -2.8598030000000563 26.244994999999903
        CHANNELS 3 Zrotation Xrotation Yrotation
        JOINT right_forearm
        {
          OFFSET 284.6506340000001 103.07031299999994 145.84521499999994
          CHANNELS 3 Zrotation Xrotation Yrotation
          JOINT right_hand
          {
            OFFSET 226.332337 -12.198241999999937 -49.27258299999994
            CHANNELS 3 Zrotation Xrotation Yrotation
            End Site
            {
              OFFSET 0.0 0.0 0.0
            }
          }
        }
      }
    }
  }
}
MOTION
Frames: 9
Frame Time: 0.01
113.73370732008298 117.22832178562801 847.4031364105621 12.936393715044673 -27.179065756719115 -62.811722482586426 2.844183791857228 3.528453366398563 -0.3923060548286702 -10.734812031670755 10.992261806370633 4.962518747034606 0.0 0.0 0.0 5.34828025745113 -1.0316257357931586 12.569607368998398 3.172452721044855 -17.021135711671267 -41.718679912688245 -4.8522745250804284 0.7934339806042703 -5.20169016513028 0.0 0.0 0.0 -1.5566026839027134 0.04693391216912061 -6.53046072941471 -27.874980645794043 0.2101008619071649 95.8510837194117 0.6055603808133335 2.1518993593573077 43.21877569757049 0.0 0.0 0.0
113.5843451898206 117.14424621521309 847.541758541696 12.946213237108166 -27.227061372693306 -62.83803889620528 2.8587526057957287 3.551338204857345 -0.39363779408835536 -10.735188939633957 10.984003191628629 4.964158565197052 0.0 0.0 0.0 5.364027343126658 -1.0311476217308782 12.57552280691215 3.2551721040129857 -16.96620760321207 -41.76812885220403 -4.8235611166397785 0.7900633466403181 -5.164115526745647 0.0 0.0 0.0 -1.555249745900257 0.04711359898721568 -6.5201669467240935 -27.886951716209968 0.2382977240006865 95.87438472520286 0.5505486962781998 2.1596575729731198 43.19112957102658 0.0 0.0 0.0
113.44015897095497 117.05579457358284 847.6905207282699 12.958217214045996 -27.2742228881531 -62.86574743612297 2.8734391513882405 3.5728309064080745 -0.3950525973048403 -10.735883323865346 10.975854051875785 4.965960726779951 0.0 0.0 0.0 5.380517152467013 -1.0305975017903681 12.581412907732572 3.3378983524344807 -16.910726306971984 -41.816763123005565 -4.795351778232867 0.7867327715643031 -5.12508378972727 0.0 0.0 0.0 -1.553874035272691 0.047277921921641604 -6.510284682772404 -27.89771799994839 0.2619599818957852 95.89894181443175 0.5021861596099256 2.1664430280234077 43.166558324937895 0.0 0.0 0.0
113.30104690735905 116.96258284734839 847.8499334999487 12.972532992885059 -27.320358220665454 -62.89469851148241 2.8881217109421944 3.592672603994088 -0.3965432908216182 -10.736875189246135 10.96794408977293 4.967891495614706 0.0 0.0 0.0 5.397813413945907 -1.0299655062480881 12.587253790959615 3.419499193297 -16.855572535892236 -41.86412549545488 -4.768061561644989 0.7834909964424882 -5.084919158230562 0.0 0.0 0.0 -1.5525063978095592 0.04742740646709059 -6.500900286597834 -27.9071150664538 0.2807161898915716 95.92438576287466 0.4611235263195272 2.172176406490062 43.14546128834811 0.0 0.0 0.0
113.16676507246727 116.86420844442877 848.0203826361382 12.989270419602605 -27.365334968365023 -62.924752966191726 2.902679329889043 3.610660215196425 -0.3981002678729923 -10.738145308689214 10.960392734894222 4.969919346123385 0.0 0.0 0.0 5.415948310713867 -1.0292589756853676 12.593106290111852 3.4989314185919467 -16.801634633789522 -41.90992486257985 -4.7421123292476315 0.780388540473219 -5.043968192888252 0.0 0.0 0.0 -1.5511685981345713 0.04756269917253232 -6.4920662980101715 -27.914998142434627 0.2942777062016703 95.95030357521262 0.42788945591942845 2.1767965734809747 43.12820341586374 0.0 0.0 0.0
113.03693511144847 116.76026867480537 848.2021088975316 13.008520507483524 -27.40908730305231 -62.95578932075803 2.916993265378781 3.626657723207847 -0.39971111293266537 -10.739677260593211 10.953303476886822 4.9720171014784045 0.0 0.0 0.0 5.434917152396571 -1.0285042738894337 12.599123386289623 3.575262607133893 -16.74979209551289 -41.95404791990977 -4.71792685705847 0.7774770323534934 -5.0025933279420975 0.0 0.0 0.0 -1.5498716164743418 0.04768450442550151 -6.483797568968703 -27.921245715405547 0.3024471356392714 95.97624714753579 0.40288142593087656 2.180260885580734 43.11510314698108 0.0 0.0 0.0
112.91105662230655 116.65038151686315 848.3951907777798 13.030353678823888 -27.45161924950486 -62.98770914483651 2.9309487390818516 3.6406037055455314 -0.40136045340076887 -10.741459133641968 10.946758729720841 4.974163790845757 0.0 0.0 0.0 5.45467538753885 -1.027747709445644 12.605553560383642 3.6476885131185495 -16.70089971478049 -41.9965642933801 -4.695921872375557 0.7748083619998251 -4.961165016552124 0.0 0.0 0.0 -1.5486147598725781 0.0477935523742701 -6.476069098661356 -27.92576277670704 0.30512505612782553 96.00174355120087 0.3863588217931258 2.1825451863675953 43.1064200818098 0.0 0.0 0.0
112.7885237708156 116.53420794346582 848.5995311599569 13.05481751154208 -27.493003890266262 -63.02044007746419 2.9444369978683183 3.6525144060911416 -0.40303008113600913 -10.74348478621787 10.940815529065283 4.976346109350147 0.0 0.0 0.0 5.4751379167346705 -1.0270554917350847 12.61273963525584 3.7155458651333904 -16.655772616821338 -42.03772484690544 -4.6765002130603115 0.7724336708259452 -4.9200527973926595 0.0 0.0 0.0 -1.5473856505289667 0.04789059767601913 -6.468815829955855 -27.928483600859632 0.3023147171794421 96.02630672749787 0.3784386585059111 2.183643486118364 43.10234302721458 0.0 0.0 0.0
112.66864560175553 116.41147497463197 848.814848599476 13.081934019638965 -27.533378373674914 -63.053936230098 2.9573576340504735 3.6624820297753797 -0.40469935902927984 -10.745754578423742 10.935502313804447 4.978559390690668 0.0 0.0 0.0 5.496180557783394 -1.0265126869377257 12.621112878639595 3.7783204915561486 -16.615172358034215 -42.07795311704116 -4.660042313897532 0.7704022057043355 -4.8796157243355625 0.0 0.0 0.0 -1.5461610949013642 0.047976446211691524 -6.461934528160428 -27.929373962861373 0.294124430020971 96.0494503007943 0.37909430224931284 2.1835673352780565 43.10297901151818 0.0 0.0 0.0
